<?xml version="1.0" ?><svg data-name="Layer 1" id="Layer_1" viewBox="0 0 84.0625 57.54297" xmlns="http://www.w3.org/2000/svg"><defs><style>.cls-1{fill:none;}</style></defs><title/><path class="cls-1" d="M37.06641,70.89355v3.12793a2.48482,2.48482,0,0,0,2.48242,2.48243H60.12891a2.48482,2.48482,0,0,0,2.48242-2.48243V70.89355Zm12.77246,4.917A1.812,1.812,0,1,1,51.65039,73.999,1.81339,1.81339,0,0,1,49.83887,75.81055Z" transform="translate(-7.6875 -20.46094)"/><path class="cls-1" d="M62.59039,24.23633a2.47689,2.47689,0,0,0-2.46148-2.27539H39.54883a2.4769,2.4769,0,0,0-2.46149,2.27539Z" transform="translate(-7.6875 -20.46094)"/><path class="cls-1" d="M49.83887,73.18652a.812.812,0,1,0,.81152.8125A.81292.81292,0,0,0,49.83887,73.18652Z" transform="translate(-7.6875 -20.46094)"/><rect class="cls-1" height="43.65723" width="25.54492" x="29.37891" y="5.27539"/><path class="cls-1" d="M30.5791,39.34863l-3.56445-3.20019a19.26311,19.26311,0,0,0,0,24.58886l3.56445-3.20019a14.48072,14.48072,0,0,1,0-18.18848Z" transform="translate(-7.6875 -20.46094)"/><path class="cls-1" d="M21.042,29.89355l-3.48535-3.28027a32.65538,32.65538,0,0,0,0,43.66016L21.042,66.99219a27.87058,27.87058,0,0,1,0-37.09864Z" transform="translate(-7.6875 -20.46094)"/><path class="cls-1" d="M81.88086,26.61328l-3.48535,3.28027a27.87058,27.87058,0,0,1,0,37.09864l3.48535,3.28125a32.65538,32.65538,0,0,0,0-43.66016Z" transform="translate(-7.6875 -20.46094)"/><path class="cls-1" d="M72.42285,36.14844,68.8584,39.34863a14.48072,14.48072,0,0,1,0,18.18848l3.56445,3.20019a19.26311,19.26311,0,0,0,0-24.58886Z" transform="translate(-7.6875 -20.46094)"/><path d="M60.12891,20.46094H39.54883a3.98645,3.98645,0,0,0-3.98242,3.98242V74.02148a3.98646,3.98646,0,0,0,3.98242,3.98243H60.12891a3.98646,3.98646,0,0,0,3.98242-3.98243V24.44336A3.98645,3.98645,0,0,0,60.12891,20.46094Zm2.48242,5.27539V69.39355H37.06641V25.73633Zm-23.0625-3.77539H60.12891a2.47689,2.47689,0,0,1,2.46148,2.27539H37.08734A2.4769,2.4769,0,0,1,39.54883,21.96094Zm20.58008,54.543H39.54883a2.48482,2.48482,0,0,1-2.48242-2.48243V70.89355H62.61133v3.12793A2.48482,2.48482,0,0,1,60.12891,76.50391Z" transform="translate(-7.6875 -20.46094)"/><path d="M49.83887,72.18652a1.812,1.812,0,1,0,1.81152,1.8125A1.81423,1.81423,0,0,0,49.83887,72.18652Zm0,2.624a.812.812,0,1,1,.81152-.81153A.81272.81272,0,0,1,49.83887,74.81055Z" transform="translate(-7.6875 -20.46094)"/><path d="M28.86719,48.44336a12.95027,12.95027,0,0,1,3.31543-8.66406.75092.75092,0,0,0-.05762-1.05957l-4.67773-4.19825a.75338.75338,0,0,0-1.05957.05762,20.76435,20.76435,0,0,0,0,27.72852.74915.74915,0,0,0,.51855.248c.0127.001.02637.001.04.001a.7528.7528,0,0,0,.501-.19141L32.125,58.166a.75058.75058,0,0,0,.05762-1.05957A12.94969,12.94969,0,0,1,28.86719,48.44336ZM27.01465,60.7373a19.26311,19.26311,0,0,1,0-24.58886l3.56445,3.20019a14.48072,14.48072,0,0,0,0,18.18848Z" transform="translate(-7.6875 -20.46094)"/><path d="M15.47266,48.44336a26.27552,26.27552,0,0,1,7.168-18.0752.74773.74773,0,0,0-.03222-1.05957L18.03223,25.001a.74808.74808,0,0,0-1.05957.03222,34.154,34.154,0,0,0,0,46.82032.74856.74856,0,0,0,1.05957.03222l4.57617-4.30859a.74773.74773,0,0,0,.03222-1.05957A26.26961,26.26961,0,0,1,15.47266,48.44336Zm2.084,21.83008a32.65538,32.65538,0,0,1,0-43.66016L21.042,29.89355a27.87058,27.87058,0,0,0,0,37.09864Z" transform="translate(-7.6875 -20.46094)"/><path d="M73.0498,34.5791a.75155.75155,0,0,0-1.05957-.05762L67.3125,38.71973a.75092.75092,0,0,0-.05762,1.05957,12.97714,12.97714,0,0,1,0,17.32715A.75058.75058,0,0,0,67.3125,58.166l4.67773,4.19921a.7528.7528,0,0,0,.501.19141c.01367,0,.02734,0,.04-.001a.74915.74915,0,0,0,.51855-.248,20.76435,20.76435,0,0,0,0-27.72852Zm-.627,26.1582L68.8584,57.53711a14.48072,14.48072,0,0,0,0-18.18848l3.56445-3.20019a19.26311,19.26311,0,0,1,0,24.58886Z" transform="translate(-7.6875 -20.46094)"/><path d="M82.46484,25.0332a.74808.74808,0,0,0-1.05957-.03222L76.8291,29.30859a.74773.74773,0,0,0-.03222,1.05957,26.37255,26.37255,0,0,1,0,36.14942.74773.74773,0,0,0,.03222,1.05957l4.57617,4.30859a.74856.74856,0,0,0,1.05957-.03222,34.154,34.154,0,0,0,0-46.82032Zm-.584,45.24024-3.48535-3.28125a27.87058,27.87058,0,0,0,0-37.09864l3.48535-3.28027a32.65538,32.65538,0,0,1,0,43.66016Z" transform="translate(-7.6875 -20.46094)"/></svg>